<svg width="23" height="23" viewBox="0 0 23 23" fill="none" xmlns="http://www.w3.org/2000/svg">
<path d="M10.9304 2.23522C11.1857 1.99386 11.5237 1.85937 11.875 1.85938C12.2263 1.85937 12.5643 1.99386 12.8196 2.23522L19.4801 8.53135C19.8926 8.92047 20.125 9.4636 20.125 10.0301V17.6888C20.125 18.2359 19.9077 18.7605 19.5209 19.1473C19.1341 19.534 18.6095 19.7513 18.0625 19.7513H15.3125C15.0415 19.7513 14.7732 19.698 14.5229 19.5942C14.2726 19.4905 14.0451 19.3384 13.8536 19.1468C13.6621 18.9551 13.5102 18.7276 13.4066 18.4772C13.303 18.2268 13.2498 17.9584 13.25 17.6875V14.25C13.25 14.0676 13.1776 13.8928 13.0486 13.7638C12.9197 13.6349 12.7448 13.5625 12.5625 13.5625H11.1875C11.0052 13.5625 10.8303 13.6349 10.7014 13.7638C10.5724 13.8928 10.5 14.0676 10.5 14.25V17.6875C10.5 18.2345 10.2827 18.7591 9.89591 19.1459C9.50911 19.5327 8.98451 19.75 8.4375 19.75H5.6875C5.14049 19.75 4.61589 19.5327 4.22909 19.1459C3.8423 18.7591 3.625 18.2345 3.625 17.6875V10.0287C3.625 9.46222 3.85875 8.9191 4.27125 8.52997L10.9304 2.23522ZM11.875 3.23347L5.2145 9.53097C5.14688 9.59507 5.093 9.67225 5.05613 9.75782C5.01926 9.84338 5.00016 9.93555 5 10.0287V17.6875C5 17.8698 5.07243 18.0447 5.20136 18.1736C5.3303 18.3025 5.50516 18.375 5.6875 18.375H8.4375C8.61984 18.375 8.7947 18.3025 8.92364 18.1736C9.05257 18.0447 9.125 17.8698 9.125 17.6875V14.25C9.125 13.703 9.3423 13.1784 9.72909 12.7916C10.1159 12.4048 10.6405 12.1875 11.1875 12.1875H12.5625C13.1095 12.1875 13.6341 12.4048 14.0209 12.7916C14.4077 13.1784 14.625 13.703 14.625 14.25V17.6875C14.625 17.8698 14.6974 18.0447 14.8264 18.1736C14.9553 18.3025 15.1302 18.375 15.3125 18.375H18.0625C18.2448 18.375 18.4197 18.3025 18.5486 18.1736C18.6776 18.0447 18.75 17.8698 18.75 17.6875V10.0287C18.75 9.93532 18.731 9.84289 18.6941 9.75707C18.6573 9.67126 18.6033 9.59386 18.5355 9.5296L11.875 3.23347Z" fill="#637D92"/>
</svg>
