<svg width="23" height="23" viewBox="0 0 23 23" fill="none" xmlns="http://www.w3.org/2000/svg">
<path d="M3.125 5.99996V15.9C3.125 16.9267 3.125 17.4397 3.32482 17.8319C3.50059 18.1769 3.78085 18.4579 4.12581 18.6337C4.5176 18.8333 5.03074 18.8333 6.0555 18.8333H16.6945C17.7193 18.8333 18.2317 18.8333 18.6234 18.6337C18.9684 18.4579 19.2496 18.1771 19.4254 17.8321C19.6252 17.4399 19.6252 16.9265 19.6252 15.8998L19.6252 8.93309C19.6252 7.90633 19.6252 7.39294 19.4254 7.00077C19.2496 6.65581 18.9686 6.37555 18.6236 6.19978C18.2315 5.99996 17.7184 5.99996 16.6917 5.99996H11.375M3.125 5.99996H11.375M3.125 5.99996C3.125 4.98744 3.94581 4.16663 4.95833 4.16663H8.32664C8.77506 4.16663 8.99979 4.16663 9.21079 4.21728C9.39785 4.26219 9.57636 4.33645 9.7404 4.43697C9.92535 4.55031 10.0842 4.70912 10.401 5.026L11.375 5.99996" stroke="#637D92" stroke-width="1.6" stroke-linecap="round" stroke-linejoin="round"/>
</svg>
