<svg width="23" height="23" viewBox="0 0 23 23" fill="none" xmlns="http://www.w3.org/2000/svg">
<g clip-path="url(#clip0_3068_1272)">
<path d="M10.7014 14.0713C11.6229 13.4578 12.3224 12.5642 12.6966 11.5224C13.0709 10.4806 13.0999 9.3461 12.7795 8.28656C12.4591 7.22701 11.8062 6.29871 10.9173 5.63893C10.0285 4.97915 8.95095 4.62292 7.84401 4.62292C6.73707 4.62292 5.65951 4.97915 4.77068 5.63893C3.88186 6.29871 3.22896 7.22701 2.90852 8.28656C2.58809 9.3461 2.61714 10.4806 2.99137 11.5224C3.36561 12.5642 4.06516 13.4578 4.98658 14.0713C3.31982 14.6856 1.89636 15.8224 0.928616 17.312C0.877754 17.3876 0.842426 17.4725 0.824684 17.5619C0.806942 17.6512 0.807141 17.7432 0.825268 17.8325C0.843396 17.9218 0.879091 18.0066 0.930278 18.082C0.981466 18.1574 1.04712 18.2218 1.12344 18.2716C1.19975 18.3214 1.2852 18.3555 1.37481 18.3719C1.46442 18.3884 1.55641 18.3869 1.64543 18.3675C1.73446 18.3481 1.81873 18.3112 1.89337 18.2589C1.968 18.2067 2.0315 18.1401 2.08018 18.0631C2.70442 17.103 3.55861 16.314 4.56518 15.7678C5.57175 15.2217 6.69881 14.9356 7.84401 14.9356C8.98921 14.9356 10.1163 15.2217 11.1228 15.7678C12.1294 16.314 12.9836 17.103 13.6078 18.0631C13.7087 18.2129 13.8644 18.3171 14.0415 18.353C14.2185 18.389 14.4025 18.3538 14.5538 18.2551C14.7051 18.1564 14.8115 18.0022 14.85 17.8257C14.8884 17.6492 14.8559 17.4647 14.7594 17.312C13.7917 15.8224 12.3682 14.6856 10.7014 14.0713ZM4.06276 9.78127C4.06276 9.03341 4.28452 8.30234 4.70001 7.68052C5.1155 7.05869 5.70605 6.57404 6.39698 6.28785C7.08792 6.00165 7.8482 5.92677 8.58169 6.07267C9.31518 6.21857 9.98894 6.5787 10.5178 7.10752C11.0466 7.63634 11.4067 8.31009 11.5526 9.04358C11.6985 9.77707 11.6236 10.5374 11.3374 11.2283C11.0512 11.9192 10.5666 12.5098 9.94476 12.9253C9.32293 13.3407 8.59187 13.5625 7.84401 13.5625C6.84151 13.5614 5.88039 13.1626 5.17151 12.4538C4.46264 11.7449 4.06389 10.7838 4.06276 9.78127ZM22.1217 18.2633C21.969 18.3629 21.7829 18.3977 21.6045 18.3602C21.4261 18.3226 21.2699 18.2158 21.1703 18.0631C20.5468 17.1024 19.6928 16.3131 18.686 15.7671C17.6792 15.2212 16.5518 14.936 15.4065 14.9375C15.2242 14.9375 15.0493 14.8651 14.9204 14.7362C14.7914 14.6072 14.719 14.4324 14.719 14.25C14.719 14.0677 14.7914 13.8928 14.9204 13.7639C15.0493 13.6349 15.2242 13.5625 15.4065 13.5625C15.9634 13.562 16.5132 13.4385 17.0168 13.2008C17.5204 12.9632 17.9653 12.6172 18.3196 12.1877C18.674 11.7581 18.9292 11.2556 19.0668 10.7161C19.2045 10.1765 19.2213 9.6132 19.116 9.06639C19.0107 8.51959 18.786 8.00278 18.4578 7.5529C18.1297 7.10303 17.7062 6.73118 17.2176 6.46394C16.7291 6.19669 16.1876 6.04065 15.6318 6.00695C15.0759 5.97325 14.5195 6.06273 14.0023 6.269C13.918 6.30546 13.8272 6.32464 13.7353 6.32542C13.6434 6.32619 13.5523 6.30855 13.4674 6.27352C13.3825 6.2385 13.3054 6.1868 13.2408 6.12149C13.1762 6.05618 13.1253 5.97858 13.0912 5.89327C13.057 5.80797 13.0404 5.71669 13.0421 5.62483C13.0439 5.53297 13.064 5.44239 13.1014 5.35845C13.1387 5.27451 13.1925 5.19891 13.2596 5.13611C13.3266 5.07331 13.4056 5.02459 13.4918 4.99283C14.6756 4.52073 15.9922 4.50374 17.1878 4.94514C18.3833 5.38654 19.373 6.25504 19.966 7.38311C20.559 8.51118 20.7132 9.81888 20.3989 11.0539C20.0846 12.289 19.324 13.3639 18.2639 14.0713C19.9307 14.6856 21.3542 15.8224 22.3219 17.312C22.4215 17.4647 22.4563 17.6507 22.4188 17.8291C22.3812 18.0075 22.2744 18.1637 22.1217 18.2633Z" fill="#637D92"/>
</g>
<defs>
<clipPath id="clip0_3068_1272">
<rect width="22" height="22" fill="white" transform="translate(0.625 0.5)"/>
</clipPath>
</defs>
</svg>
