<svg width="23" height="23" viewBox="0 0 23 23" fill="none" xmlns="http://www.w3.org/2000/svg">
<path d="M18.7791 8.67935L18.4434 8.4926C18.3913 8.4636 18.3657 8.44905 18.3405 8.43397C18.0901 8.28401 17.8791 8.07683 17.7252 7.82896C17.7097 7.80402 17.6951 7.77786 17.6652 7.72617C17.6354 7.67454 17.6203 7.64838 17.6064 7.62248C17.4683 7.36461 17.3936 7.07722 17.3891 6.78472C17.3887 6.75532 17.3888 6.72527 17.3898 6.66554L17.3963 6.27572C17.4068 5.6519 17.4121 5.33902 17.3244 5.05823C17.2466 4.80882 17.1163 4.5791 16.9423 4.38415C16.7457 4.16378 16.4735 4.00656 15.9285 3.69253L15.4759 3.43169C14.9325 3.11853 14.6606 2.9619 14.3721 2.90219C14.1169 2.84936 13.8535 2.85181 13.5992 2.9089C13.3121 2.97334 13.0437 3.13405 12.5072 3.4553L12.5042 3.45675L12.1798 3.65096C12.1285 3.68167 12.1026 3.69715 12.0769 3.71144C11.8218 3.85326 11.537 3.93168 11.2453 3.94105C11.2159 3.94199 11.186 3.94199 11.1262 3.94199C11.0668 3.94199 11.0356 3.94199 11.0062 3.94105C10.7139 3.93164 10.4285 3.85279 10.1731 3.71038C10.1473 3.69603 10.1218 3.68043 10.0704 3.64958L9.74404 3.45362C9.20387 3.12933 8.93338 2.96695 8.64475 2.90219C8.3894 2.84489 8.12509 2.84331 7.86891 2.89682C7.57966 2.95723 7.30779 3.11503 6.76403 3.43061L6.76162 3.43169L6.31459 3.69113L6.30964 3.69416C5.77079 4.00691 5.50071 4.16366 5.30572 4.38313C5.13269 4.57788 5.00336 4.80724 4.92595 5.056C4.83845 5.33717 4.84311 5.65071 4.85365 6.27747L4.8602 6.66674C4.8612 6.72569 4.86292 6.75498 4.86249 6.78398C4.85815 7.07707 4.78245 7.36504 4.64393 7.62338C4.63023 7.64893 4.61547 7.67448 4.586 7.72551C4.5565 7.77658 4.54221 7.80197 4.52691 7.82662C4.37225 8.07581 4.16029 8.28421 3.90839 8.43441C3.88347 8.44927 3.85721 8.46356 3.80561 8.49215L3.47418 8.67582C2.92274 8.98141 2.64709 9.13434 2.44651 9.35197C2.26907 9.5445 2.13502 9.77286 2.0532 10.0216C1.96071 10.3027 1.96078 10.618 1.96222 11.2484L1.96339 11.7637C1.96481 12.3899 1.96676 12.7028 2.05946 12.9821C2.14147 13.2291 2.27454 13.4561 2.45099 13.6475C2.65043 13.8638 2.92334 14.0158 3.4706 14.3202L3.79908 14.503C3.85498 14.5341 3.88311 14.5494 3.91007 14.5657C4.15969 14.716 4.36998 14.9238 4.52333 15.1716C4.5399 15.1983 4.5558 15.2261 4.5876 15.2817C4.61901 15.3365 4.63508 15.364 4.64961 15.3915C4.78406 15.646 4.85604 15.9289 4.86095 16.2167C4.86148 16.2478 4.86103 16.2792 4.85996 16.3425L4.85365 16.716C4.84304 17.3449 4.83841 17.6597 4.92643 17.9417C5.00429 18.1911 5.13444 18.4208 5.30841 18.6158C5.50506 18.8361 5.77767 18.9933 6.32265 19.3073L6.77521 19.5681C7.31866 19.8812 7.59028 20.0377 7.8788 20.0974C8.13404 20.1502 8.39759 20.1482 8.65191 20.0911C8.93936 20.0266 9.20869 19.8653 9.74672 19.5431L10.0711 19.3489C10.1224 19.3182 10.1484 19.3028 10.1741 19.2885C10.4292 19.1467 10.7136 19.0678 11.0053 19.0585C11.0347 19.0575 11.0646 19.0575 11.1245 19.0575C11.1844 19.0575 11.2143 19.0575 11.2437 19.0585C11.5361 19.0679 11.8223 19.147 12.0778 19.2894C12.1003 19.3019 12.1228 19.3155 12.1623 19.3392L12.5071 19.5462C13.0474 19.8706 13.3173 20.0325 13.6059 20.0972C13.8613 20.1545 14.1258 20.1568 14.382 20.1033C14.6711 20.0429 14.9436 19.8848 15.487 19.5694L15.9408 19.3061C16.48 18.9931 16.7503 18.8362 16.9454 18.6167C17.1184 18.4219 17.2479 18.1926 17.3253 17.9439C17.4122 17.6648 17.407 17.3536 17.3966 16.7359L17.3898 16.3331C17.3888 16.2741 17.3887 16.2448 17.3891 16.2158C17.3935 15.9227 17.4679 15.6345 17.6064 15.3762C17.6201 15.3507 17.635 15.3249 17.6644 15.2741C17.6939 15.223 17.7091 15.1975 17.7244 15.1729C17.8791 14.9237 18.0913 14.7151 18.3432 14.5649C18.3678 14.5502 18.3931 14.5362 18.4435 14.5083L18.4452 14.5075L18.7766 14.3238C19.3281 14.0182 19.6043 13.8651 19.8048 13.6475C19.9823 13.455 20.1162 13.2269 20.198 12.9782C20.2899 12.6987 20.2892 12.3853 20.2878 11.7622L20.2866 11.2359C20.2852 10.6096 20.2844 10.2968 20.1917 10.0175C20.1097 9.7705 19.9759 9.54348 19.7994 9.35211C19.6002 9.13602 19.3269 8.98398 18.7807 8.68013L18.7791 8.67935Z" stroke="#637D92" stroke-width="1.6" stroke-linecap="round" stroke-linejoin="round"/>
<path d="M7.45864 11.5C7.45864 13.525 9.10026 15.1666 11.1253 15.1666C13.1503 15.1666 14.792 13.525 14.792 11.5C14.792 9.47492 13.1503 7.8333 11.1253 7.8333C9.10026 7.8333 7.45864 9.47492 7.45864 11.5Z" stroke="#637D92" stroke-width="1.6" stroke-linecap="round" stroke-linejoin="round"/>
</svg>
